<?xml version="1.0" encoding="UTF-8" standalone="no"?>
<svg
   xmlns:dc="http://purl.org/dc/elements/1.1/"
   xmlns:cc="http://creativecommons.org/ns#"
   xmlns:rdf="http://www.w3.org/1999/02/22-rdf-syntax-ns#"
   xmlns:svg="http://www.w3.org/2000/svg"
   xmlns="http://www.w3.org/2000/svg"
   xmlns:sodipodi="http://sodipodi.sourceforge.net/DTD/sodipodi-0.dtd"
   xmlns:inkscape="http://www.inkscape.org/namespaces/inkscape"
   version="1.1"
   id="svg2"
   xml:space="preserve"
   width="341.33334"
   height="341.33334"
   viewBox="0 0 341.33334 341.33334"
   sodipodi:docname="azmisahin.ai"><metadata
     id="metadata8"><rdf:RDF><cc:Work
         rdf:about=""><dc:format>image/svg+xml</dc:format><dc:type
           rdf:resource="https://purl.org/dc/dcmitype/StillImage" /></cc:Work></rdf:RDF></metadata><defs
     id="defs6"><clipPath
       clipPathUnits="userSpaceOnUse"
       id="clipPath18"><path
         d="M 0,256 H 256 V 0 H 0 Z"
         id="path16" /></clipPath></defs><sodipodi:namedview
     pagecolor="#ffffff"
     bordercolor="#666666"
     borderopacity="1"
     objecttolerance="10"
     gridtolerance="10"
     guidetolerance="10"
     inkscape:pageopacity="0"
     inkscape:pageshadow="2"
     inkscape:window-width="640"
     inkscape:window-height="480"
     id="namedview4" /><g
     id="g10"
     inkscape:groupmode="layer"
     inkscape:label="azmisahin"
     transform="matrix(1.3333333,0,0,-1.3333333,0,341.33333)"><g
       id="g12"><g
         id="g14"
         clip-path="url(#clipPath18)"><g
           id="g20"
           transform="translate(115.21,122.1875)"><path
             d="m 0,0 c 9.25,4.658 16.312,11.127 21.187,19.406 4.875,8.28 7.313,17.412 7.313,27.397 0,10.566 -3.084,18.929 -9.25,25.086 -6.168,6.156 -14.375,9.236 -24.625,9.236 -18.668,0 -35.688,-9.867 -51.063,-29.602 C -71.813,31.789 -79.5,8.227 -79.5,-19.166 c 0,-14.988 2.707,-27.063 8.125,-36.221 5.416,-9.16 12.416,-13.738 21,-13.738 2.582,0 5.145,0.395 7.687,1.187 2.542,0.792 5.042,1.958 7.5,3.5 2.458,1.542 4.854,3.479 7.188,5.813 2.332,2.332 4.957,5.729 7.875,10.187 2.916,4.458 4.375,7.309 4.375,8.555 v 27.008 c -2.834,-0.334 -5.25,-0.5 -7.25,-0.5 -8.668,0 -15.563,2.562 -20.688,7.688 -5.125,5.125 -7.687,11.937 -7.687,20.437 0,8.25 2.52,16.312 7.562,24.188 C -38.771,46.813 -31.834,52.832 -23,57 l 1.875,-2.75 c -12.668,-10.562 -19,-22.162 -19,-34.801 0,-7.484 2.02,-13.451 6.062,-17.9 4.042,-4.449 9.52,-6.674 16.438,-6.674 h 1.875 V 45.268 L 0,53.75 Z m -15.75,-52.125 c -12.584,-18.334 -26.584,-27.5 -42,-27.5 -11.084,0 -20.084,4.541 -27,13.625 -6.918,9.082 -10.375,20.75 -10.375,35 0,19.332 5.062,38.645 15.187,57.937 10.125,19.292 23.188,34.895 39.188,46.813 16,11.916 31.666,17.875 47,17.875 9.916,0 17.812,-3.309 23.687,-9.926 5.876,-6.617 8.813,-15.5 8.813,-26.652 C 38.75,29.078 25.832,8.438 0,-6.875 v -51.477 c 0,-4.925 0.312,-8.224 0.937,-9.894 0.625,-1.67 2.313,-2.504 5.063,-2.504 6.166,0 13.416,5.457 21.75,16.375 l 4,-3.25 C 26,-65.875 20.791,-71.668 16.125,-75 c -4.668,-3.332 -9.584,-5 -14.75,-5 -5.668,0 -9.959,1.549 -12.875,4.645 -2.918,3.097 -4.334,10.839 -4.25,23.23"
             style="fill:#414142;fill-opacity:1;fill-rule:nonzero;stroke:none"
             id="path22" /></g><g
           id="g24"
           transform="translate(170.71,104.9834)"><path
             d="M 0,0 C 6.5,-3.334 11.707,-8.209 15.625,-14.625 19.541,-21.043 21.5,-27.5 21.5,-34 c 0,-7.75 -2.271,-14.5 -6.812,-20.25 -4.543,-5.75 -10.356,-8.625 -17.438,-8.625 -3.5,0 -7.293,1.168 -11.375,3.5 -4.084,2.332 -7.625,5.75 -10.625,10.25 2.582,4 6.332,7.416 11.25,10.25 l 1,-1.25 c -0.168,-0.834 -0.25,-2.043 -0.25,-3.625 0,-3.584 1.242,-6.771 3.73,-9.563 2.489,-2.792 5.307,-4.187 8.459,-4.187 3.899,0 7.09,1.645 9.579,4.937 2.488,3.292 3.732,7.438 3.732,12.438 0,10.332 -6.125,19.541 -18.375,27.625 L -16.25,-29.25 C -20.5,-36.084 -23.584,-40.668 -25.5,-43 l -3.875,3.125 c 8.5,12.582 16.957,27.916 25.375,46 l 3,-0.25 z"
             style="fill:#414142;fill-opacity:1;fill-rule:nonzero;stroke:none"
             id="path26" /></g><g
           id="g28"
           transform="translate(213.46,65.9834)"><path
             d="m 0,0 c -8.918,-14.668 -20.168,-22.625 -33.75,-23.875 l -0.75,2.375 c 6,1.418 11.104,3.77 15.313,7.062 4.207,3.292 9.353,9.104 15.437,17.438 z"
             style="fill:#bf1e2d;fill-opacity:1;fill-rule:nonzero;stroke:none"
             id="path30" /></g><path
           d="M 0,256 H 256 V 0 H 0 Z"
           style="fill:none;stroke:#58595b;stroke-width:1;stroke-linecap:butt;stroke-linejoin:miter;stroke-miterlimit:10;stroke-dasharray:none;stroke-opacity:1"
           id="path32" /><g
           id="g34"
           transform="translate(0,42.6875)"><path
             d="M 0,0 H 256"
             style="fill:none;stroke:#58595b;stroke-width:1;stroke-linecap:butt;stroke-linejoin:miter;stroke-miterlimit:10;stroke-dasharray:none;stroke-opacity:1"
             id="path36" /></g><g
           id="g38"
           transform="translate(0,85.3125)"><path
             d="M 0,0 H 256"
             style="fill:none;stroke:#58595b;stroke-width:1;stroke-linecap:butt;stroke-linejoin:miter;stroke-miterlimit:10;stroke-dasharray:none;stroke-opacity:1"
             id="path40" /></g><g
           id="g42"
           transform="translate(0,128)"><path
             d="M 0,0 H 256"
             style="fill:none;stroke:#58595b;stroke-width:1;stroke-linecap:butt;stroke-linejoin:miter;stroke-miterlimit:10;stroke-dasharray:none;stroke-opacity:1"
             id="path44" /></g><g
           id="g46"
           transform="translate(0,170.6875)"><path
             d="M 0,0 H 256"
             style="fill:none;stroke:#58595b;stroke-width:1;stroke-linecap:butt;stroke-linejoin:miter;stroke-miterlimit:10;stroke-dasharray:none;stroke-opacity:1"
             id="path48" /></g><g
           id="g50"
           transform="translate(0,213.3125)"><path
             d="M 0,0 H 256"
             style="fill:none;stroke:#58595b;stroke-width:1;stroke-linecap:butt;stroke-linejoin:miter;stroke-miterlimit:10;stroke-dasharray:none;stroke-opacity:1"
             id="path52" /></g><g
           id="g54"
           transform="translate(213.3125,256)"><path
             d="M 0,0 V -256"
             style="fill:none;stroke:#58595b;stroke-width:1;stroke-linecap:butt;stroke-linejoin:miter;stroke-miterlimit:10;stroke-dasharray:none;stroke-opacity:1"
             id="path56" /></g><g
           id="g58"
           transform="translate(170.6875,256)"><path
             d="M 0,0 V -256"
             style="fill:none;stroke:#58595b;stroke-width:1;stroke-linecap:butt;stroke-linejoin:miter;stroke-miterlimit:10;stroke-dasharray:none;stroke-opacity:1"
             id="path60" /></g><g
           id="g62"
           transform="translate(128,256)"><path
             d="M 0,0 V -256"
             style="fill:none;stroke:#58595b;stroke-width:1;stroke-linecap:butt;stroke-linejoin:miter;stroke-miterlimit:10;stroke-dasharray:none;stroke-opacity:1"
             id="path64" /></g><g
           id="g66"
           transform="translate(85.3125,256)"><path
             d="M 0,0 V -256"
             style="fill:none;stroke:#58595b;stroke-width:1;stroke-linecap:butt;stroke-linejoin:miter;stroke-miterlimit:10;stroke-dasharray:none;stroke-opacity:1"
             id="path68" /></g><g
           id="g70"
           transform="translate(42.6875,256)"><path
             d="M 0,0 V -256"
             style="fill:none;stroke:#58595b;stroke-width:1;stroke-linecap:butt;stroke-linejoin:miter;stroke-miterlimit:10;stroke-dasharray:none;stroke-opacity:1"
             id="path72" /></g></g></g></g></svg>
